<svg xmlns="http://www.w3.org/2000/svg" viewBox="0 0 1600 900" role="img" aria-labelledby="title desc">
  <title id="title">Cleaning Scene</title>
  <desc id="desc">Abstract local illustration for CleanTech pages.</desc>
  <defs>
    <linearGradient id="bg" x1="0" y1="0" x2="1" y2="1">
      <stop offset="0%" stop-color="#0f172a"/>
      <stop offset="50%" stop-color="#0b3b66"/>
      <stop offset="100%" stop-color="#16a34a"/>
    </linearGradient>
    <linearGradient id="card" x1="0" y1="0" x2="1" y2="1">
      <stop offset="0%" stop-color="#e0f2fe" stop-opacity="0.95"/>
      <stop offset="100%" stop-color="#bfdbfe" stop-opacity="0.65"/>
    </linearGradient>
  </defs>
  <rect width="1600" height="900" fill="url(#bg)"/>
  <circle cx="1260" cy="170" r="180" fill="#38bdf8" opacity="0.18"/>
  <circle cx="250" cy="760" r="220" fill="#22c55e" opacity="0.15"/>
  <rect x="130" y="150" width="560" height="560" rx="36" fill="url(#card)"/>
  <rect x="220" y="250" width="240" height="320" rx="24" fill="#f8fafc"/>
  <rect x="500" y="230" width="120" height="400" rx="24" fill="#dbeafe"/>
  <circle cx="340" cy="210" r="70" fill="#fde68a"/>
  <path d="M920 625c60-190 170-290 330-300 95-6 170 25 230 88v107H920z" fill="#082f49" opacity="0.65"/>
  <path d="M975 565c78-125 165-188 263-188 79 0 144 31 198 93" fill="none" stroke="#bae6fd" stroke-width="18" stroke-linecap="round"/>
  <path d="M930 240c46 0 82 36 82 82s-36 82-82 82-82-36-82-82 36-82 82-82z" fill="#f8fafc"/>
  <path d="M1035 435H825c-24 0-43 19-43 43v140h296V478c0-24-19-43-43-43z" fill="#e0f2fe"/>
  <path d="M1175 295c52 10 99 46 131 102" fill="none" stroke="#22c55e" stroke-width="16" stroke-linecap="round"/>
  <text x="130" y="810" fill="#e2e8f0" font-size="72" font-family="Segoe UI, Arial, sans-serif" font-weight="700">CleanTech</text>
  <text x="130" y="860" fill="#bae6fd" font-size="32" font-family="Segoe UI, Arial, sans-serif">Reliable local image asset for home, auth, and promo sections</text>
</svg>
